<mxfile host="app.diagrams.net" modified="2022-05-15T19:08:08.564Z" agent="5.0 (Windows NT 10.0; Win64; x64) AppleWebKit/537.36 (KHTML, like Gecko) Chrome/101.0.4951.54 Safari/537.36" etag="xOG9FEq1wtu4LvhjIOuA" version="18.0.3" type="github">
  <diagram id="Pp4UJ4THsJMwEIlvclbV" name="Page-1">
    <mxGraphModel dx="1550" dy="867" grid="1" gridSize="10" guides="1" tooltips="1" connect="1" arrows="1" fold="1" page="1" pageScale="1" pageWidth="1169" pageHeight="827" math="0" shadow="0">
      <root>
        <mxCell id="0" />
        <mxCell id="1" parent="0" />
        <mxCell id="Xwr9oSPE_BPrt6rsoKPA-1" value="" style="whiteSpace=wrap;html=1;aspect=fixed;" parent="1" vertex="1">
          <mxGeometry x="190" y="50" width="730" height="730" as="geometry" />
        </mxCell>
        <mxCell id="Xwr9oSPE_BPrt6rsoKPA-21" value="&lt;font style=&quot;font-size: 30px;&quot;&gt;Hlavné Menu&lt;/font&gt;" style="rounded=0;whiteSpace=wrap;html=1;fontSize=36;" parent="1" vertex="1">
          <mxGeometry x="210" y="710" width="200" height="60" as="geometry" />
        </mxCell>
        <mxCell id="Xwr9oSPE_BPrt6rsoKPA-24" value="&lt;font style=&quot;font-size: 55px;&quot;&gt;Konfigurácia&lt;/font&gt;" style="text;strokeColor=none;fillColor=none;html=1;fontSize=70;fontStyle=1;verticalAlign=middle;align=center;fontColor=#000000;" parent="1" vertex="1">
          <mxGeometry x="390" y="80" width="330" height="80" as="geometry" />
        </mxCell>
        <mxCell id="p974ipH_m4cJ8BEOd314-7" value="&lt;font style=&quot;font-size: 30px;&quot;&gt;Spustiť Hru&lt;/font&gt;" style="rounded=0;whiteSpace=wrap;html=1;fontSize=36;" parent="1" vertex="1">
          <mxGeometry x="700" y="710" width="200" height="60" as="geometry" />
        </mxCell>
        <mxCell id="p974ipH_m4cJ8BEOd314-2" value="" style="line;strokeWidth=4;html=1;perimeter=backbonePerimeter;points=[];outlineConnect=0;fontSize=28;" parent="1" vertex="1">
          <mxGeometry x="449.95666666666665" y="256.6666666666667" width="144.76190476190476" height="8.333333333333334" as="geometry" />
        </mxCell>
        <mxCell id="Xwr9oSPE_BPrt6rsoKPA-2" value="Konštanta x" style="rounded=0;whiteSpace=wrap;html=1;fontSize=28;" parent="1" vertex="1">
          <mxGeometry x="210" y="240" width="203.90243902439025" height="41.66666666666667" as="geometry" />
        </mxCell>
        <mxCell id="p974ipH_m4cJ8BEOd314-3" value="" style="ellipse;shape=doubleEllipse;whiteSpace=wrap;html=1;aspect=fixed;fontSize=28;" parent="1" vertex="1">
          <mxGeometry x="449.959024390244" y="249.58333333333334" width="22.5" height="22.5" as="geometry" />
        </mxCell>
        <mxCell id="p974ipH_m4cJ8BEOd314-4" value="Konštanta y" style="rounded=0;whiteSpace=wrap;html=1;fontSize=28;" parent="1" vertex="1">
          <mxGeometry x="210" y="340.00333333333333" width="203.90243902439025" height="41.66666666666667" as="geometry" />
        </mxCell>
        <mxCell id="p974ipH_m4cJ8BEOd314-5" value="&lt;font style=&quot;font-size: 22px;&quot;&gt;Možnosť A&lt;/font&gt;" style="html=1;whiteSpace=wrap;container=1;recursiveResize=0;collapsible=0;fontSize=28;align=left;" parent="1" vertex="1">
          <mxGeometry x="443.55902439024396" y="340.00333333333333" width="157.5609756097561" height="41.66666666666667" as="geometry" />
        </mxCell>
        <mxCell id="p974ipH_m4cJ8BEOd314-6" value="" style="triangle;html=1;whiteSpace=wrap;fontSize=28;direction=south;" parent="p974ipH_m4cJ8BEOd314-5" vertex="1">
          <mxGeometry x="120.48780487804876" y="12.500000000000002" width="27.804878048780488" height="16.66666666666667" as="geometry" />
        </mxCell>
        <mxCell id="p974ipH_m4cJ8BEOd314-11" value="Konštanta z" style="rounded=0;whiteSpace=wrap;html=1;fontSize=28;" parent="1" vertex="1">
          <mxGeometry x="210" y="455.33" width="210" height="44.67" as="geometry" />
        </mxCell>
        <mxCell id="p974ipH_m4cJ8BEOd314-13" value="" style="whiteSpace=wrap;html=1;aspect=fixed;fontSize=30;" parent="1" vertex="1">
          <mxGeometry x="500" y="455.33000000000004" width="44.67" height="44.67" as="geometry" />
        </mxCell>
        <mxCell id="p974ipH_m4cJ8BEOd314-12" value="" style="verticalLabelPosition=bottom;verticalAlign=top;html=1;shape=mxgraph.basic.tick;fontSize=30;fillColor=#000000;" parent="1" vertex="1">
          <mxGeometry x="508.84000000000003" y="461.67" width="27" height="30" as="geometry" />
        </mxCell>
        <mxCell id="p974ipH_m4cJ8BEOd314-15" value="" style="shape=ext;double=1;whiteSpace=wrap;html=1;aspect=fixed;fontSize=30;fillColor=#FFFFFF;" parent="1" vertex="1">
          <mxGeometry x="640" y="240" width="260" height="260" as="geometry" />
        </mxCell>
        <mxCell id="p974ipH_m4cJ8BEOd314-18" value="" style="line;strokeWidth=4;html=1;perimeter=backbonePerimeter;points=[];outlineConnect=0;fontSize=28;" parent="1" vertex="1">
          <mxGeometry x="697.6166666666666" y="517.0866666666667" width="144.76190476190476" height="8.333333333333334" as="geometry" />
        </mxCell>
        <mxCell id="p974ipH_m4cJ8BEOd314-19" value="" style="ellipse;shape=doubleEllipse;whiteSpace=wrap;html=1;aspect=fixed;fontSize=28;" parent="1" vertex="1">
          <mxGeometry x="687.499024390244" y="510.00333333333333" width="22.5" height="22.5" as="geometry" />
        </mxCell>
        <mxCell id="p974ipH_m4cJ8BEOd314-20" value="Hráč" style="shape=umlActor;verticalLabelPosition=bottom;verticalAlign=top;html=1;fontSize=30;fillColor=#000000;" parent="1" vertex="1">
          <mxGeometry x="705" y="290" width="130" height="160" as="geometry" />
        </mxCell>
      </root>
    </mxGraphModel>
  </diagram>
</mxfile>
